<?xml version="1.0" standalone="no"?><!DOCTYPE svg PUBLIC "-//W3C//DTD SVG 1.1//EN" "http://www.w3.org/Graphics/SVG/1.1/DTD/svg11.dtd"><svg t="1604021282912" class="icon" viewBox="0 0 1024 1024" version="1.1" xmlns="http://www.w3.org/2000/svg" p-id="3462" width="128" height="128" xmlns:xlink="http://www.w3.org/1999/xlink"><defs><style type="text/css"></style></defs><path d="M512 64C262.4 64 64 262.4 64 512s198.4 448 448 448 448-198.4 448-448-198.4-448-448-448z m0-64c281.6 0 512 230.4 512 512s-230.4 512-512 512-512-230.4-512-512 230.4-512 512-512z m32 480H768c19.2 0 32 12.8 32 32s-12.8 32-32 32H544V768c0 19.2-12.8 32-32 32s-32-12.8-32-32V544H256c-19.2 0-32-12.8-32-32s12.8-32 32-32h224V256c0-19.2 12.8-32 32-32s32 12.8 32 32v224z" p-id="3463"></path></svg>